<?xml version="1.0" encoding="utf-8"?>
<!-- Generator: Adobe Illustrator 26.3.1, SVG Export Plug-In . SVG Version: 6.00 Build 0)  -->
<svg version="1.1" id="Layer_1" xmlns="http://www.w3.org/2000/svg" xmlns:xlink="http://www.w3.org/1999/xlink" x="0px" y="0px"
	 viewBox="0 0 612 792" style="enable-background:new 0 0 612 792;" xml:space="preserve">
<style type="text/css">
	.st0{fill:none;stroke:#FFFFFF;stroke-width:0.9555;stroke-miterlimit:10;}
</style>
<g>
	<path class="st0" d="M247.75,317.76c4.22,0,8.15,1.93,10.48,5.14l18.81,25.88c5.88,8.05,10.78,15.51,16,23.56h0.98
		c5.23-8.65,10.45-16.1,15.68-23.86l18.48-25.56c2.33-3.22,6.27-5.16,10.5-5.16h0c10.2,0,16.16,10.5,10.28,18.1l-34.89,45.18
		c-3.02,3.91-3.07,9.12-0.12,13.08l37.27,50.04c5.68,7.63-0.3,17.94-10.4,17.94h-2.08c-4.25,0-8.22-1.96-10.54-5.22l-19.47-27.29
		c-6.21-8.35-11.43-16.4-16.98-25.05h-0.65c-5.23,8.65-10.78,16.4-16.66,25.05l-19.15,27.23c-2.31,3.29-6.3,5.28-10.58,5.28h-0.72
		c-10.16,0-16.13-10.43-10.32-18.05l37.43-49.07c3-3.93,3.01-9.16,0.02-13.1l-34.94-46.1c-5.77-7.62,0.2-18.02,10.34-18.02H247.75z"
		/>
</g>
</svg>
